<svg xmlns="http://www.w3.org/2000/svg" viewBox="0 0 500 500" width="100%" height="100%">
  <polygon points="250,50 423.2,150 423.2,350 250,450 76.8,350 76.8,150" fill="#2478D2" stroke="#2478D2" stroke-width="12" stroke-linejoin="round"/>

  <g transform="matrix(0.866, -0.5, 0.866, 0.5, 76.8, 150)">
    <path d="M 15 15 L 185 15 L 185 50 L 50 50 L 50 85 L 185 85 L 185 185 L 15 185 L 15 150 L 150 150 L 150 115 L 15 115 Z" fill="#B8FBC0" stroke="#B8FBC0" stroke-width="3" stroke-linejoin="round"/>
  </g>

  <g transform="matrix(0.866, 0.5, 0, 1, 76.8, 150)">
    <path d="M 15 185 L 15 15 L 100 100 L 185 15 L 185 185 L 140 185 L 140 75 L 100 115 L 60 75 L 60 185 Z" fill="#BDE0FE" stroke="#BDE0FE" stroke-width="3" stroke-linejoin="round"/>
  </g>

  <g transform="matrix(0.866, -0.5, 0, 1, 250, 250)">
    <path d="M 15 185 L 15 15 L 185 15 L 185 115 L 60 115 L 60 185 Z M 60 55 L 60 80 L 140 80 L 140 55 Z" fill="#FFC8DD" stroke="#FFC8DD" stroke-width="3" stroke-linejoin="round" fill-rule="evenodd"/>
  </g>
</svg>
